<svg width="256" height="29" viewBox="0 0 256 29" fill="none" xmlns="http://www.w3.org/2000/svg">
<g opacity="0.5">
<path d="M18.5468 4.35919C20.0104 6.39552 19.565 9.32275 17.465 10.7864L7.60153 17.8499C5.5652 19.3771 2.70161 18.868 1.17436 16.8317C-0.289249 14.7317 0.156206 11.8682 2.25617 10.4045L12.1196 3.27739C14.156 1.81378 17.0196 2.25923 18.5468 4.35919Z" fill="#EA4435" stroke="#100F10" stroke-width="0.636353" stroke-miterlimit="10"/>
<path d="M1.17436 11.4228C-0.289249 13.5227 0.156206 16.3863 2.25617 17.8499L12.1196 24.9771C14.156 26.4407 17.0196 25.9953 18.5468 23.8953C20.0104 21.859 19.565 18.9317 17.465 17.4681L7.60153 10.4046C5.5652 8.87736 2.70161 9.38645 1.17436 11.4228Z" fill="#537CBE" stroke="#100F10" stroke-width="0.636353" stroke-miterlimit="10"/>
<path d="M42.3466 11.4228C43.8102 13.5227 43.3648 16.3863 41.2648 17.8499L31.4013 24.9771C29.365 26.4407 26.5014 25.9953 24.9742 23.8953C23.5106 21.859 23.956 18.9317 26.056 17.4681L35.9194 10.4046C37.9558 8.87736 40.8194 9.38645 42.3466 11.4228Z" fill="#F8AB19" stroke="#100F10" stroke-width="0.636353" stroke-miterlimit="10"/>
<path d="M24.9742 4.35919C23.5106 6.39552 23.956 9.32275 26.056 10.7864L35.9194 17.8499C37.9558 19.3771 40.8194 18.868 42.3466 16.8317C43.8102 14.7317 43.3648 11.8682 41.2648 10.4045L31.4013 3.27739C29.365 1.81378 26.5014 2.25923 24.9742 4.35919Z" fill="#32A852" stroke="#100F10" stroke-width="0.636353" stroke-miterlimit="10"/>
<path d="M61.2031 14.127H88.8209" stroke="#100F10" stroke-width="0.636353" stroke-miterlimit="10"/>
<path d="M75.0122 0.318359V27.9361" stroke="#100F10" stroke-width="0.636353" stroke-miterlimit="10"/>
<path d="M84.7483 4.39111L65.2759 23.8635" stroke="#100F10" stroke-width="0.636353" stroke-miterlimit="10"/>
<path d="M84.7483 23.8635L65.2759 4.39111" stroke="#100F10" stroke-width="0.636353" stroke-miterlimit="10"/>
<path d="M136.857 14.1272C136.857 6.49098 130.111 0.318359 121.839 0.318359C113.502 0.318359 106.821 6.49098 106.821 14.1272C106.821 21.7635 113.502 27.9361 121.839 27.9361C130.111 27.9361 136.857 21.7635 136.857 14.1272Z" stroke="#100F10" stroke-width="0.636353" stroke-miterlimit="10"/>
<path d="M128.33 14.1272C128.33 6.49098 125.402 0.318359 121.839 0.318359C118.275 0.318359 115.348 6.49098 115.348 14.1272C115.348 21.7635 118.275 27.9361 121.839 27.9361C125.402 27.9361 128.33 21.7635 128.33 14.1272Z" stroke="#100F10" stroke-width="0.636353" stroke-miterlimit="10"/>
<path d="M107.839 9.03613H135.775" stroke="#100F10" stroke-width="0.636353" stroke-miterlimit="10"/>
<path d="M107.839 19.2178H135.775" stroke="#100F10" stroke-width="0.636353" stroke-miterlimit="10"/>
<path d="M229.946 6.49121C229.946 14.9547 224.346 21.7637 217.41 21.7637C210.537 21.7637 204.938 14.9547 204.938 6.49121" stroke="#100F10" stroke-width="0.636353" stroke-miterlimit="10"/>
<path d="M204.937 6.49121C204.937 14.9547 199.337 21.7637 192.401 21.7637C185.529 21.7637 179.929 14.9547 179.929 6.49121" stroke="#100F10" stroke-width="0.636353" stroke-miterlimit="10"/>
<path d="M254.955 6.49121C254.955 14.9547 249.355 21.7637 242.482 21.7637C235.546 21.7637 229.946 14.9547 229.946 6.49121" stroke="#100F10" stroke-width="0.636353" stroke-miterlimit="10"/>
<path d="M179.929 6.49121C179.929 14.9547 174.329 21.7637 167.393 21.7637C160.456 21.7637 154.856 14.9547 154.856 6.49121" stroke="#100F10" stroke-width="0.636353" stroke-miterlimit="10"/>
</g>
</svg>
